<svg width="500" height="500" xmlns="http://www.w3.org/2000/svg">

 <g>
  <title>background</title>
  <rect fill="none" id="canvas_background" height="402" width="582" y="-1" x="-1"/>
 </g>
 <g>
  <title>Layer 1</title>
  <rect fill="#cb1f26" y="-0.000003" x="0" width="500" id="rect3048" height="500"/>
  <path fill="#ffffff" id="rect2989" d="m259.125,60c-106.98251,0 -160.90625,74.33142 -160.90625,136.34375c0,37.54021 14.65099,70.94049 46.09375,83.375c5.15777,2.06098 9.7851,0.09667 11.28125,-5.4375c1.03942,-3.81661 3.49921,-13.46203 4.59375,-17.5c1.50404,-5.47303 0.94684,-7.40145 -3.21875,-12.1875c-9.06351,-10.35827 -14.875,-23.79051 -14.875,-42.8125c0,-55.15771 42.55637,-104.53125 110.84375,-104.53125c60.46804,0 93.6875,35.80284 93.6875,83.625c0,62.94359 -28.72687,116.09375 -71.375,116.09375c-23.56039,0 -41.16937,-18.89565 -35.53125,-42.0625c6.76418,-27.65518 19.875,-57.49259 19.875,-77.46875c0,-17.86175 -9.94053,-32.75 -30.40625,-32.75c-24.08013,0 -43.375,24.15803 -43.375,56.5c0,20.60209 7.15625,34.53125 7.15625,34.53125c0,0 -24.64568,101.21315 -28.96875,118.9375c-8.59891,35.30367 -1.30959,78.57142 -0.6875,82.9375c0.36222,2.59534 3.81585,3.2041 5.375,1.25c2.21271,-2.81668 30.91553,-37.1338 40.65625,-71.4375c2.76393,-9.70183 15.84375,-59.96875 15.84375,-59.96875c7.82722,14.47258 30.68364,27.1875 55,27.1875c72.37424,0 121.5,-63.94826 121.5,-149.5625c0.00792,-64.75267 -56.58905,-125.0625 -142.5625,-125.0625z"/>
 </g>
</svg>